<svg width="932" height="103" viewBox="0 0 932 103" fill="none" xmlns="http://www.w3.org/2000/svg">
<path d="M5.49316 31.7341H10.415L19.6655 56.4094L28.894 31.7341H33.8159L21.5991 63.7263H17.688L5.49316 31.7341ZM3.25195 31.7341H7.93213L8.74512 53.0915V63.7263H3.25195V31.7341ZM31.377 31.7341H36.0791V63.7263H30.564V53.0915L31.377 31.7341ZM41.0889 52.1027V51.5974C41.0889 49.8835 41.3379 48.2941 41.8359 46.8293C42.334 45.3498 43.0518 44.0681 43.9893 42.9841C44.9414 41.8854 46.0986 41.0358 47.4609 40.4352C48.8379 39.82 50.3906 39.5124 52.1191 39.5124C53.8623 39.5124 55.415 39.82 56.7773 40.4352C58.1543 41.0358 59.3188 41.8854 60.271 42.9841C61.2231 44.0681 61.9482 45.3498 62.4463 46.8293C62.9443 48.2941 63.1934 49.8835 63.1934 51.5974V52.1027C63.1934 53.8166 62.9443 55.4059 62.4463 56.8708C61.9482 58.3356 61.2231 59.6174 60.271 60.716C59.3188 61.8 58.1616 62.6496 56.7993 63.2648C55.437 63.8654 53.8916 64.1657 52.1631 64.1657C50.4199 64.1657 48.8599 63.8654 47.4829 63.2648C46.1206 62.6496 44.9634 61.8 44.0112 60.716C43.0591 59.6174 42.334 58.3356 41.8359 56.8708C41.3379 55.4059 41.0889 53.8166 41.0889 52.1027ZM46.3843 51.5974V52.1027C46.3843 53.1721 46.4941 54.1828 46.7139 55.1349C46.9336 56.0871 47.2778 56.9221 47.7466 57.6398C48.2153 58.3576 48.8159 58.9216 49.5483 59.3317C50.2808 59.7419 51.1523 59.947 52.1631 59.947C53.1445 59.947 53.9941 59.7419 54.7119 59.3317C55.4443 58.9216 56.0449 58.3576 56.5137 57.6398C56.9824 56.9221 57.3267 56.0871 57.5464 55.1349C57.7808 54.1828 57.8979 53.1721 57.8979 52.1027V51.5974C57.8979 50.5427 57.7808 49.5466 57.5464 48.6091C57.3267 47.6569 56.9751 46.8146 56.4917 46.0822C56.0229 45.3498 55.4224 44.7785 54.6899 44.3683C53.9722 43.9435 53.1152 43.7311 52.1191 43.7311C51.123 43.7311 50.2588 43.9435 49.5264 44.3683C48.8086 44.7785 48.2153 45.3498 47.7466 46.0822C47.2778 46.8146 46.9336 47.6569 46.7139 48.6091C46.4941 49.5466 46.3843 50.5427 46.3843 51.5974ZM75.0146 59.5295L80.8374 39.9518H86.3306L78.0688 63.7263H74.6411L75.0146 59.5295ZM70.5542 39.9518L76.4868 59.6174L76.7725 63.7263H73.3447L65.0391 39.9518H70.5542ZM99.7778 64.1657C98.02 64.1657 96.4307 63.8801 95.0098 63.3088C93.6035 62.7228 92.4023 61.9099 91.4062 60.8698C90.4248 59.8298 89.6704 58.6066 89.1431 57.2004C88.6157 55.7941 88.3521 54.278 88.3521 52.652V51.7731C88.3521 49.9128 88.623 48.2282 89.165 46.7194C89.707 45.2106 90.4614 43.9216 91.4282 42.8522C92.395 41.7682 93.5376 40.9406 94.856 40.3693C96.1743 39.798 97.6025 39.5124 99.1406 39.5124C100.84 39.5124 102.327 39.798 103.601 40.3693C104.875 40.9406 105.93 41.7463 106.765 42.7863C107.615 43.8117 108.245 45.0349 108.655 46.4557C109.08 47.8766 109.292 49.444 109.292 51.1579V53.4211H90.9229V49.6198H104.062V49.2023C104.033 48.2502 103.843 47.3566 103.491 46.5217C103.154 45.6867 102.634 45.0129 101.931 44.5002C101.228 43.9875 100.291 43.7311 99.1187 43.7311C98.2397 43.7311 97.4561 43.9216 96.7676 44.3024C96.0938 44.6686 95.5298 45.2033 95.0757 45.9064C94.6216 46.6096 94.27 47.4592 94.021 48.4553C93.7866 49.4367 93.6694 50.5427 93.6694 51.7731V52.652C93.6694 53.6921 93.8086 54.6589 94.0869 55.5524C94.3799 56.4313 94.8047 57.2004 95.3613 57.8596C95.918 58.5187 96.5918 59.0388 97.3828 59.4196C98.1738 59.7858 99.0747 59.9689 100.085 59.9689C101.36 59.9689 102.495 59.7126 103.491 59.1999C104.487 58.6872 105.352 57.9621 106.084 57.0246L108.875 59.7272C108.362 60.4743 107.695 61.1921 106.875 61.8806C106.055 62.5544 105.051 63.1037 103.865 63.5285C102.693 63.9533 101.331 64.1657 99.7778 64.1657ZM118.718 44.7858V63.7263H113.423V39.9518H118.411L118.718 44.7858ZM117.861 50.9601L116.06 50.9382C116.06 49.2975 116.265 47.7814 116.675 46.3898C117.085 44.9982 117.686 43.7897 118.477 42.7643C119.268 41.7243 120.249 40.926 121.421 40.3693C122.607 39.798 123.977 39.5124 125.53 39.5124C126.614 39.5124 127.603 39.6735 128.496 39.9958C129.404 40.3034 130.188 40.7941 130.847 41.468C131.521 42.1418 132.034 43.006 132.385 44.0607C132.751 45.1154 132.935 46.3898 132.935 47.884V63.7263H127.639V48.3454C127.639 47.1882 127.463 46.28 127.112 45.6208C126.775 44.9616 126.284 44.4929 125.64 44.2145C125.01 43.9216 124.255 43.7751 123.376 43.7751C122.38 43.7751 121.531 43.9655 120.828 44.3464C120.139 44.7272 119.575 45.2473 119.136 45.9064C118.696 46.5656 118.374 47.3273 118.169 48.1916C117.964 49.0558 117.861 49.9787 117.861 50.9601ZM132.605 49.5539L130.122 50.1032C130.122 48.6677 130.32 47.3127 130.715 46.0383C131.125 44.7492 131.719 43.6213 132.495 42.6545C133.286 41.673 134.26 40.904 135.417 40.3474C136.575 39.7907 137.9 39.5124 139.395 39.5124C140.61 39.5124 141.694 39.6808 142.646 40.0178C143.613 40.34 144.434 40.8527 145.107 41.5558C145.781 42.259 146.294 43.1745 146.646 44.3024C146.997 45.4157 147.173 46.7634 147.173 48.3454V63.7263H141.855V48.3234C141.855 47.1223 141.68 46.1921 141.328 45.5329C140.991 44.8737 140.508 44.4196 139.878 44.1706C139.248 43.9069 138.494 43.7751 137.615 43.7751C136.794 43.7751 136.069 43.9289 135.439 44.2365C134.824 44.5295 134.304 44.947 133.879 45.489C133.455 46.0163 133.132 46.6242 132.913 47.3127C132.708 48.0012 132.605 48.7482 132.605 49.5539ZM163.103 64.1657C161.345 64.1657 159.756 63.8801 158.335 63.3088C156.929 62.7228 155.728 61.9099 154.731 60.8698C153.75 59.8298 152.996 58.6066 152.468 57.2004C151.941 55.7941 151.677 54.278 151.677 52.652V51.7731C151.677 49.9128 151.948 48.2282 152.49 46.7194C153.032 45.2106 153.787 43.9216 154.753 42.8522C155.72 41.7682 156.863 40.9406 158.181 40.3693C159.5 39.798 160.928 39.5124 162.466 39.5124C164.165 39.5124 165.652 39.798 166.926 40.3693C168.201 40.9406 169.255 41.7463 170.09 42.7863C170.94 43.8117 171.57 45.0349 171.98 46.4557C172.405 47.8766 172.617 49.444 172.617 51.1579V53.4211H154.248V49.6198H167.388V49.2023C167.358 48.2502 167.168 47.3566 166.816 46.5217C166.479 45.6867 165.959 45.0129 165.256 44.5002C164.553 43.9875 163.616 43.7311 162.444 43.7311C161.565 43.7311 160.781 43.9216 160.093 44.3024C159.419 44.6686 158.855 45.2033 158.401 45.9064C157.947 46.6096 157.595 47.4592 157.346 48.4553C157.112 49.4367 156.995 50.5427 156.995 51.7731V52.652C156.995 53.6921 157.134 54.6589 157.412 55.5524C157.705 56.4313 158.13 57.2004 158.687 57.8596C159.243 58.5187 159.917 59.0388 160.708 59.4196C161.499 59.7858 162.4 59.9689 163.411 59.9689C164.685 59.9689 165.82 59.7126 166.816 59.1999C167.812 58.6872 168.677 57.9621 169.409 57.0246L172.2 59.7272C171.687 60.4743 171.021 61.1921 170.2 61.8806C169.38 62.5544 168.376 63.1037 167.19 63.5285C166.018 63.9533 164.656 64.1657 163.103 64.1657ZM182 45.0275V63.7263H176.704V39.9518H181.692L182 45.0275ZM181.055 50.9601L179.341 50.9382C179.355 49.2536 179.59 47.7082 180.044 46.3019C180.513 44.8957 181.157 43.6872 181.978 42.6765C182.812 41.6657 183.809 40.8893 184.966 40.3474C186.123 39.7907 187.412 39.5124 188.833 39.5124C189.976 39.5124 191.008 39.6735 191.931 39.9958C192.869 40.3034 193.667 40.8088 194.326 41.5119C195 42.215 195.513 43.1306 195.864 44.2585C196.216 45.3718 196.392 46.7414 196.392 48.3674V63.7263H191.074V48.3454C191.074 47.2028 190.906 46.3019 190.569 45.6428C190.247 44.9689 189.771 44.4929 189.141 44.2145C188.525 43.9216 187.756 43.7751 186.833 43.7751C185.925 43.7751 185.112 43.9655 184.395 44.3464C183.677 44.7272 183.069 45.2473 182.571 45.9064C182.087 46.5656 181.714 47.3273 181.45 48.1916C181.187 49.0558 181.055 49.9787 181.055 50.9601ZM212.695 39.9518V43.819H199.292V39.9518H212.695ZM203.159 34.1291H208.455V57.1564C208.455 57.8889 208.557 58.4528 208.762 58.8483C208.982 59.2292 209.282 59.4855 209.663 59.6174C210.044 59.7492 210.491 59.8151 211.003 59.8151C211.37 59.8151 211.721 59.7932 212.058 59.7492C212.395 59.7053 212.666 59.6613 212.871 59.6174L212.893 63.6603C212.454 63.7922 211.941 63.9094 211.355 64.0119C210.784 64.1144 210.125 64.1657 209.377 64.1657C208.162 64.1657 207.085 63.9533 206.147 63.5285C205.21 63.0891 204.478 62.3786 203.95 61.3972C203.423 60.4157 203.159 59.112 203.159 57.486V34.1291ZM230.12 57.2883C230.12 56.7609 229.988 56.2849 229.724 55.86C229.46 55.4206 228.955 55.0251 228.208 54.6735C227.476 54.322 226.392 53.9997 224.956 53.7067C223.696 53.4284 222.539 53.0988 221.484 52.718C220.444 52.3224 219.551 51.8464 218.804 51.2897C218.057 50.7331 217.478 50.0739 217.068 49.3122C216.658 48.5505 216.453 47.6716 216.453 46.6755C216.453 45.7087 216.665 44.7932 217.09 43.9289C217.515 43.0646 218.123 42.3029 218.914 41.6437C219.705 40.9846 220.664 40.4645 221.792 40.0837C222.935 39.7028 224.209 39.5124 225.615 39.5124C227.607 39.5124 229.314 39.8493 230.735 40.5231C232.17 41.1823 233.269 42.0832 234.031 43.2258C234.792 44.3537 235.173 45.6281 235.173 47.049H229.878C229.878 46.4191 229.717 45.8332 229.395 45.2912C229.087 44.7346 228.618 44.2878 227.988 43.9509C227.358 43.5993 226.567 43.4235 225.615 43.4235C224.707 43.4235 223.953 43.57 223.352 43.863C222.766 44.1413 222.327 44.5075 222.034 44.9616C221.755 45.4157 221.616 45.9138 221.616 46.4557C221.616 46.8513 221.689 47.2101 221.836 47.5324C221.997 47.84 222.261 48.1257 222.627 48.3893C222.993 48.6384 223.491 48.8727 224.121 49.0925C224.766 49.3122 225.571 49.5246 226.538 49.7297C228.354 50.1105 229.915 50.6013 231.218 51.2018C232.537 51.7878 233.547 52.5495 234.25 53.487C234.954 54.4099 235.305 55.5817 235.305 57.0026C235.305 58.0573 235.078 59.0241 234.624 59.903C234.185 60.7673 233.54 61.5217 232.69 62.1662C231.841 62.7961 230.823 63.2868 229.636 63.6384C228.464 63.9899 227.146 64.1657 225.681 64.1657C223.528 64.1657 221.704 63.7849 220.21 63.0231C218.716 62.2468 217.581 61.258 216.804 60.0568C216.042 58.841 215.662 57.5812 215.662 56.2775H220.781C220.84 57.259 221.111 58.0427 221.594 58.6286C222.092 59.1999 222.708 59.6174 223.44 59.881C224.187 60.1301 224.956 60.2546 225.747 60.2546C226.699 60.2546 227.498 60.1301 228.142 59.881C228.787 59.6174 229.277 59.2658 229.614 58.8264C229.951 58.3723 230.12 57.8596 230.12 57.2883Z" fill="#302F2F"/>
<path d="M270 52.7263H834" stroke="#D3D3D3"/>
<circle cx="880.5" cy="51.2262" r="43" transform="rotate(-9.48737 880.5 51.2262)" stroke="#F7F5F5" stroke-width="3"/>
<path d="M836.855 60.0406L869.404 54.6013" stroke="#F7F5F5" stroke-width="3"/>
<path d="M892.09 50.8102L924.638 45.3708" stroke="#F7F5F5" stroke-width="3"/>
<circle cx="881.239" cy="52.6233" r="12.5" transform="rotate(-9.48737 881.239 52.6233)" stroke="#F7F5F5" stroke-width="3"/>
<circle cx="881.24" cy="52.6233" r="6.5" transform="rotate(-9.48737 881.24 52.6233)" stroke="#F7F5F5" stroke-width="3"/>
</svg>
