<svg width="932" height="103" viewBox="0 0 932 103" fill="none" xmlns="http://www.w3.org/2000/svg">
<path d="M20.083 55.7603C20.083 55.1011 19.9805 54.5152 19.7754 54.0025C19.585 53.4898 19.2407 53.021 18.7427 52.5962C18.2446 52.1714 17.5415 51.7613 16.6333 51.3658C15.7397 50.9556 14.5972 50.5381 13.2056 50.1133C11.6821 49.6446 10.2759 49.1245 8.98682 48.5533C7.7124 47.9673 6.59912 47.2935 5.64697 46.5318C4.69482 45.7554 3.95508 44.8692 3.42773 43.8731C2.90039 42.8623 2.63672 41.6978 2.63672 40.3794C2.63672 39.0757 2.90771 37.8892 3.44971 36.8199C4.00635 35.7505 4.79004 34.8277 5.80078 34.0513C6.82617 33.2603 8.03467 32.6524 9.42627 32.2276C10.8179 31.7881 12.356 31.5684 14.0405 31.5684C16.4136 31.5684 18.457 32.0078 20.1709 32.8867C21.8994 33.7657 23.2251 34.9449 24.1479 36.4243C25.0854 37.9038 25.5542 39.5371 25.5542 41.3242H20.083C20.083 40.2696 19.856 39.3394 19.4019 38.5337C18.9624 37.7134 18.2886 37.0689 17.3804 36.6001C16.4868 36.1314 15.3516 35.897 13.9746 35.897C12.6709 35.897 11.5869 36.0948 10.7227 36.4903C9.8584 36.8858 9.21387 37.4204 8.78906 38.0943C8.36426 38.7681 8.15186 39.5298 8.15186 40.3794C8.15186 40.98 8.29102 41.5293 8.56934 42.0274C8.84766 42.5108 9.27246 42.9649 9.84375 43.3897C10.415 43.7998 11.1328 44.188 11.9971 44.5542C12.8613 44.9204 13.8794 45.272 15.0513 45.6089C16.8237 46.1363 18.3691 46.7222 19.6875 47.3667C21.0059 47.9966 22.1045 48.7144 22.9834 49.5201C23.8623 50.3257 24.5215 51.2412 24.9609 52.2666C25.4004 53.2774 25.6201 54.4273 25.6201 55.7163C25.6201 57.064 25.3491 58.2798 24.8071 59.3638C24.2651 60.4331 23.4888 61.3487 22.478 62.1104C21.4819 62.8575 20.2808 63.4361 18.8745 63.8462C17.4829 64.2417 15.9302 64.4395 14.2163 64.4395C12.6782 64.4395 11.1621 64.2344 9.66797 63.8242C8.18848 63.4141 6.84082 62.7915 5.625 61.9566C4.40918 61.107 3.44238 60.0523 2.72461 58.7925C2.00684 57.5181 1.64795 56.0313 1.64795 54.3321H7.16309C7.16309 55.3721 7.33887 56.2583 7.69043 56.9908C8.05664 57.7232 8.56201 58.3238 9.20654 58.7925C9.85107 59.2466 10.5981 59.5835 11.4478 59.8033C12.312 60.023 13.2349 60.1328 14.2163 60.1328C15.5054 60.1328 16.582 59.9497 17.4463 59.5835C18.3252 59.2173 18.9844 58.7046 19.4238 58.0454C19.8633 57.3863 20.083 56.6245 20.083 55.7603ZM40.8691 40.2256V44.0928H27.4658V40.2256H40.8691ZM31.333 34.4029H36.6284V57.4302C36.6284 58.1626 36.731 58.7266 36.936 59.1221C37.1558 59.503 37.4561 59.7593 37.8369 59.8911C38.2178 60.023 38.6646 60.0889 39.1772 60.0889C39.5435 60.0889 39.895 60.0669 40.2319 60.023C40.5688 59.979 40.8398 59.9351 41.0449 59.8911L41.0669 63.9341C40.6274 64.0659 40.1147 64.1831 39.5288 64.2857C38.9575 64.3882 38.2983 64.4395 37.5513 64.4395C36.3354 64.4395 35.2588 64.2271 34.3213 63.8023C33.3838 63.3628 32.6514 62.6524 32.124 61.6709C31.5967 60.6895 31.333 59.3858 31.333 57.7598V34.4029ZM58.3594 59.232V47.8941C58.3594 47.0445 58.2056 46.312 57.8979 45.6968C57.5903 45.0816 57.1216 44.6055 56.4917 44.2686C55.8765 43.9317 55.1001 43.7632 54.1626 43.7632C53.2983 43.7632 52.5513 43.9097 51.9214 44.2027C51.2915 44.4956 50.8008 44.8911 50.4492 45.3892C50.0977 45.8872 49.9219 46.4512 49.9219 47.0811H44.6484C44.6484 46.1436 44.8755 45.2354 45.3296 44.3565C45.7837 43.4776 46.4429 42.6939 47.3071 42.0054C48.1714 41.3169 49.2041 40.7749 50.4053 40.3794C51.6064 39.9839 52.9541 39.7862 54.4482 39.7862C56.2354 39.7862 57.8174 40.0865 59.1943 40.687C60.5859 41.2876 61.6772 42.1958 62.4683 43.4117C63.2739 44.6128 63.6768 46.1216 63.6768 47.938V58.5069C63.6768 59.5909 63.75 60.565 63.8965 61.4292C64.0576 62.2788 64.2847 63.0186 64.5776 63.6485V64H59.1504C58.9014 63.4287 58.7036 62.7036 58.5571 61.8247C58.4253 60.9312 58.3594 60.0669 58.3594 59.232ZM59.1284 49.542L59.1724 52.8159H55.3711C54.3896 52.8159 53.5254 52.9112 52.7783 53.1016C52.0312 53.2774 51.4087 53.541 50.9106 53.8926C50.4126 54.2442 50.0391 54.669 49.79 55.167C49.541 55.6651 49.4165 56.229 49.4165 56.8589C49.4165 57.4888 49.563 58.0674 49.856 58.5948C50.1489 59.1075 50.5737 59.5103 51.1304 59.8033C51.7017 60.0962 52.3901 60.2427 53.1958 60.2427C54.2798 60.2427 55.2246 60.023 56.0303 59.5835C56.8506 59.1294 57.4951 58.5801 57.9639 57.9356C58.4326 57.2764 58.6816 56.6538 58.7109 56.0679L60.4248 58.419C60.249 59.0196 59.9487 59.6641 59.5239 60.3526C59.0991 61.041 58.5425 61.7002 57.854 62.3301C57.1802 62.9453 56.3672 63.4507 55.415 63.8462C54.4775 64.2417 53.3936 64.4395 52.1631 64.4395C50.6104 64.4395 49.2261 64.1319 48.0103 63.5166C46.7944 62.8867 45.8423 62.0445 45.1538 60.9898C44.4653 59.9204 44.1211 58.7119 44.1211 57.3643C44.1211 56.1045 44.3555 54.9912 44.8242 54.0244C45.3076 53.043 46.0107 52.2227 46.9336 51.5635C47.8711 50.9043 49.0137 50.4063 50.3613 50.0694C51.709 49.7178 53.2471 49.542 54.9756 49.542H59.1284ZM80.1123 40.2256V44.0928H66.709V40.2256H80.1123ZM70.5762 34.4029H75.8716V57.4302C75.8716 58.1626 75.9741 58.7266 76.1792 59.1221C76.3989 59.503 76.6992 59.7593 77.0801 59.8911C77.4609 60.023 77.9077 60.0889 78.4204 60.0889C78.7866 60.0889 79.1382 60.0669 79.4751 60.023C79.812 59.979 80.083 59.9351 80.2881 59.8911L80.3101 63.9341C79.8706 64.0659 79.3579 64.1831 78.772 64.2857C78.2007 64.3882 77.5415 64.4395 76.7944 64.4395C75.5786 64.4395 74.502 64.2271 73.5645 63.8023C72.627 63.3628 71.8945 62.6524 71.3672 61.6709C70.8398 60.6895 70.5762 59.3858 70.5762 57.7598V34.4029ZM97.5366 57.562C97.5366 57.0347 97.4048 56.5586 97.1411 56.1338C96.8774 55.6944 96.3721 55.2989 95.625 54.9473C94.8926 54.5957 93.8086 54.2735 92.373 53.9805C91.1133 53.7022 89.9561 53.3726 88.9014 52.9917C87.8613 52.5962 86.9678 52.1201 86.2207 51.5635C85.4736 51.0069 84.895 50.3477 84.4849 49.586C84.0747 48.8242 83.8696 47.9453 83.8696 46.9492C83.8696 45.9825 84.082 45.0669 84.5068 44.2027C84.9316 43.3384 85.5396 42.5767 86.3306 41.9175C87.1216 41.2583 88.0811 40.7383 89.209 40.3575C90.3516 39.9766 91.626 39.7862 93.0322 39.7862C95.0244 39.7862 96.731 40.1231 98.1519 40.7969C99.5874 41.4561 100.686 42.357 101.448 43.4995C102.209 44.6275 102.59 45.9019 102.59 47.3228H97.2949C97.2949 46.6929 97.1338 46.107 96.8115 45.565C96.5039 45.0083 96.0352 44.5616 95.4053 44.2246C94.7754 43.8731 93.9844 43.6973 93.0322 43.6973C92.124 43.6973 91.3696 43.8438 90.769 44.1367C90.1831 44.4151 89.7437 44.7813 89.4507 45.2354C89.1724 45.6895 89.0332 46.1875 89.0332 46.7295C89.0332 47.125 89.1064 47.4839 89.2529 47.8062C89.4141 48.1138 89.6777 48.3994 90.0439 48.6631C90.4102 48.9121 90.9082 49.1465 91.5381 49.3662C92.1826 49.586 92.9883 49.7984 93.9551 50.0034C95.7715 50.3843 97.3315 50.875 98.6353 51.4756C99.9536 52.0616 100.964 52.8233 101.667 53.7608C102.371 54.6836 102.722 55.8555 102.722 57.2764C102.722 58.3311 102.495 59.2979 102.041 60.1768C101.602 61.041 100.957 61.7954 100.107 62.44C99.2578 63.0699 98.2397 63.5606 97.0532 63.9121C95.8813 64.2637 94.563 64.4395 93.0981 64.4395C90.9448 64.4395 89.1211 64.0586 87.627 63.2969C86.1328 62.5205 84.9976 61.5318 84.2212 60.3306C83.4595 59.1148 83.0786 57.855 83.0786 56.5513H88.1982C88.2568 57.5327 88.5278 58.3164 89.0112 58.9024C89.5093 59.4737 90.1245 59.8911 90.8569 60.1548C91.604 60.4038 92.373 60.5284 93.1641 60.5284C94.1162 60.5284 94.9146 60.4038 95.5591 60.1548C96.2036 59.8911 96.6943 59.5396 97.0312 59.1001C97.3682 58.646 97.5366 58.1333 97.5366 57.562Z" fill="#302F2F"/>
<path d="M147 53H827" stroke="#D3D3D3"/>
<circle cx="880.5" cy="51.5" r="43" transform="rotate(-9.48737 880.5 51.5)" stroke="#F7F5F5" stroke-width="3"/>
<path d="M836.855 60.3144L869.404 54.875" stroke="#F7F5F5" stroke-width="3"/>
<path d="M892.09 51.084L924.638 45.6446" stroke="#F7F5F5" stroke-width="3"/>
<circle cx="881.239" cy="52.8971" r="12.5" transform="rotate(-9.48737 881.239 52.8971)" stroke="#F7F5F5" stroke-width="3"/>
<circle cx="881.24" cy="52.8971" r="6.5" transform="rotate(-9.48737 881.24 52.8971)" stroke="#F7F5F5" stroke-width="3"/>
</svg>
